<?xml version="1.0" encoding="utf-8"?>
<!-- Generator: Adobe Illustrator 19.2.0, SVG Export Plug-In . SVG Version: 6.00 Build 0)  -->
<svg version="1.1" id="Layer_1" xmlns="http://www.w3.org/2000/svg" xmlns:xlink="http://www.w3.org/1999/xlink" x="0px" y="0px"
	 viewBox="0 0 64 56" style="enable-background:new 0 0 64 56;" xml:space="preserve">
<style type="text/css">
	.st0{fill:#F6C799;}
	.st1{fill:#2CAECE;}
	.st2{fill:#FDF516;}
	.st3{fill:#FF5555;}
	.st4{fill:#83BF4F;}
	.st5{fill:#9156B7;}
	.st6{fill:#947151;}
	.st7{fill:#666666;}
	.st8{fill:#CCCCCC;}
</style>
<g>
	<path class="st0" d="M49.6,19.4C58.4,4.3,40.3-5.5,17.3,5C3.2,11.5-6.6,31.5,13,48.7C26.8,60.9,62,54,62,40
		C62,24.6,40.3,35.2,49.6,19.4z M54.5,44c-2.8,2.4-7.2,2.4-10,0c-2.8-2.4-2.8-4.5,0-6.9c2.8-2.4,7.2-2.4,10,0S57.2,41.6,54.5,44z"/>
	<path class="st1" d="M33.2,40.9c-3.1-2.4-8-2.4-11.1,0c-3.1,2.4-3.1,6.2,0,8.6s8,2.4,11.1,0C36.2,47.1,36.2,43.3,33.2,40.9z"/>
	<path class="st2" d="M19.6,29.4c-3.4-1.6-8-0.6-10.4,2.3c-2.4,2.9-1.6,6.5,1.8,8.1c3.4,1.6,8,0.6,10.4-2.3
		C23.8,34.6,23,31,19.6,29.4z"/>
	<path class="st3" d="M17,16.5c-2.9-1.6-7.2-0.9-9.4,1.6c-2.3,2.5-1.7,5.8,1.2,7.3c2.9,1.6,7.2,0.9,9.4-1.6S19.9,18.1,17,16.5z"/>
	<path class="st4" d="M28.4,6.6c-2.8-1.6-6.9-1-9.1,1.4s-1.8,5.5,1.1,7.1c2.8,1.6,6.9,1,9.1-1.4S31.2,8.2,28.4,6.6z"/>
	<path class="st5" d="M44.7,5.5c-2.2-1.8-5.9-2.2-8.5-1c-2.5,1.2-2.8,3.7-0.6,5.5c2.2,1.8,5.9,2.2,8.5,1C46.6,9.7,46.8,7.3,44.7,5.5
		z"/>
	<g>
		<path class="st6" d="M40,38c-1.9,2.1-11.5,4-11.5,4s3.8-3.5,5.5-9.2c0.8-2.7,4.7-2.7,6.4-1.2C42.1,33,41.9,35.9,40,38z"/>
		<path class="st7" d="M58.7,8.1c1-0.1,2.9,1.6,3,2.5C62,14.9,44,30.3,44,30.3l-3-2.5C41,27.8,54.3,8.4,58.7,8.1z"/>
		<polygon class="st8" points="38.4,30.7 41.4,33.2 44,30.3 41,27.8 		"/>
	</g>
</g>
</svg>
